<svg xmlns="http://www.w3.org/2000/svg" viewBox="0 0 400 300" role="img" aria-label="No photo available">
  <rect width="400" height="300" fill="#f0ebe4"/>
  <g fill="#a8a29e">
    <path d="M120 210c-6-28 4-52 26-66-3-10-1-21 6-29 5-6 13-9 21-8 2-8 8-14 16-16 11-3 22 3 26 13 14 1 25 12 27 26 9 4 15 13 15 23 0 3 0 6-1 9 9 6 15 16 15 28 0 19-16 35-35 35H150c-15 0-28-10-30-15z"/>
    <circle cx="248" cy="150" r="5" fill="#f0ebe4"/>
    <path d="M96 236c8-4 20-4 28 2 6-8 16-13 27-13h95c9 0 17 4 23 10 9-3 19-1 26 5" fill="none" stroke="#a8a29e" stroke-width="6" stroke-linecap="round"/>
  </g>
  <text x="200" y="270" text-anchor="middle" font-family="sans-serif" font-size="14" fill="#6b6560">Photo coming soon</text>
</svg>
